<?xml version="1.0" encoding="utf-8"?>
<!-- Generator: Adobe Illustrator 24.1.1, SVG Export Plug-In . SVG Version: 6.00 Build 0)  -->
<svg version="1.1" xmlns="http://www.w3.org/2000/svg" xmlns:xlink="http://www.w3.org/1999/xlink" x="0px" y="0px"
	 viewBox="0 0 512 512" style="enable-background:new 0 0 512 512;" xml:space="preserve">
<style type="text/css">
	.st0{display:none;}
	.st1{display:inline;fill:none;}
	.st2{display:inline;}
	.st3{display:inline;fill:none;stroke:#FFCB6A;stroke-width:16;stroke-miterlimit:10;}
	.st4{display:inline;fill:none;stroke:#FF6666;stroke-width:40;stroke-miterlimit:10;}
	.st5{fill:none;stroke:#FF6666;stroke-width:40;stroke-miterlimit:10;}
	.st6{fill:#FF6666;}
</style>
<g id="レイヤー_2" class="st0">
	<path id="SVGID_x5F_1_x5F_" class="st1" d="M147.46,86.93c-5.02,7.13-15.68,24.35-16,48c-0.52,38.83,27.24,63.41,34,69
		c28.93,23.91,62.78,21.86,77,21c8.02-0.49,68.86-5.16,98-55c10.79-18.46,13.34-36.45,14-47"/>
	<text class="st2">	<textPath  xlink:href="#SVGID_x5F_1_x5F_" startOffset="9.2278%">
<tspan  style="font-family:'CopperplateGothic-Bold'; font-size:48px;">mic Can</tspan>	</textPath>
</text>
	<path class="st3" d="M433.77,457.56H78.23c-13.14,0-23.78-10.65-23.78-23.78V78.23c0-13.14,10.65-23.78,23.78-23.78h355.55
		c13.14,0,23.78,10.65,23.78,23.78v355.55C457.56,446.91,446.91,457.56,433.77,457.56z"/>
	<path class="st4" d="M434.22,458H77.78C64.65,458,54,447.35,54,434.22V77.78C54,64.65,64.65,54,77.78,54h356.43
		C447.35,54,458,64.65,458,77.78v356.43C458,447.35,447.35,458,434.22,458z"/>
</g>
<g id="レイヤー_1">
	<path class="st5" d="M434.22,458H77.78C64.65,458,54,447.35,54,434.22V77.78C54,64.65,64.65,54,77.78,54h356.43
		C447.35,54,458,64.65,458,77.78v356.43C458,447.35,447.35,458,434.22,458z"/>
	<g id="mozi">
		<g>
			<path class="st6" d="M356.63,241.13L410,267.46l-2.35,4.98c-4.32-0.99-7.39-0.97-9.2,0.08c-1.81,1.04-5.49,6.39-11.03,16.03
				c-11.52,19.94-22.18,35.05-31.97,45.34c-9.8,10.29-22.83,20.13-39.1,29.52c-32.44,18.73-63.49,26.41-93.15,23.05
				c-17.41-1.86-33.46-7.39-48.15-16.59c-16.89-10.47-30.61-24.84-41.17-43.12c-14.38-24.91-19.6-50.75-15.64-77.54
				c5.95-40.26,31.07-73.17,75.36-98.75c16.27-9.39,31.21-15.74,44.84-19.06c13.62-3.31,32.07-4.99,55.34-5.04
				c11.06-0.09,17.5-0.66,19.3-1.7c1.81-1.04,3.36-3.68,4.67-7.92l5.48,0.45l-3.83,59.46l-5.63-0.35c-0.72-1.72-1.4-3.12-2.04-4.23
				c-1.67-2.9-4.51-4.9-8.49-6c-3.98-1.1-10.23-1.6-18.74-1.49c-23.55,0.26-45.27,6.13-65.16,17.61
				c-23.5,13.57-38.84,30.25-46.03,50.05c-8.54,23.26-6.4,45.97,6.4,68.14c12.8,22.17,31.4,35.38,55.81,39.61
				c20.74,3.68,42.86-1.27,66.36-14.84c19.89-11.48,35.82-27.37,47.8-47.68c4.34-7.33,7.03-13,8.06-17.01
				c1.03-4.01,0.71-7.47-0.97-10.38c-0.64-1.1-1.49-2.35-2.56-3.74L356.63,241.13z"/>
		</g>
		<g>
			<path class="st6" d="M177.4,258.02l13.57-5.86l-11.06-1.1c-0.36-0.04-0.65,0.02-0.85,0.16c-0.21,0.14-0.4,0.42-0.57,0.83
				l-0.49-0.05l0.64-6.49l0.49,0.05c0.06,0.42,0.19,0.72,0.37,0.91c0.18,0.19,0.45,0.3,0.81,0.34l15.99,1.59
				c0.36,0.04,0.65-0.02,0.85-0.16c0.21-0.14,0.39-0.42,0.55-0.83l0.49,0.05l-0.82,8.26l-0.49-0.05c-0.12-0.56-0.43-0.87-0.91-0.92
				c-0.48-0.05-1.08,0.09-1.8,0.42l-9.33,4l8.24,5.78c0.86,0.65,1.49,0.99,1.87,1.03c0.48,0.05,0.81-0.21,0.99-0.77l0.49,0.05
				l-0.8,8.05l-0.49-0.05c-0.07-0.43-0.2-0.74-0.38-0.92c-0.18-0.18-0.44-0.29-0.8-0.33l-15.98-1.58c-0.36-0.04-0.65,0.02-0.86,0.16
				c-0.21,0.14-0.4,0.42-0.56,0.83l-0.49-0.05l0.69-6.91l0.49,0.05c0.06,0.42,0.19,0.72,0.37,0.91c0.18,0.19,0.45,0.3,0.81,0.34
				l11.08,1.1L177.4,258.02z"/>
			<path class="st6" d="M198.29,280.97l-15.08,5.5c-0.34,0.12-0.57,0.3-0.7,0.52c-0.13,0.22-0.18,0.55-0.15,0.99l-0.46,0.17
				l-2.38-6.53l0.46-0.17c0.24,0.35,0.48,0.57,0.73,0.66c0.24,0.09,0.54,0.07,0.88-0.05l15.1-5.5c0.34-0.12,0.57-0.3,0.69-0.51
				c0.12-0.22,0.17-0.55,0.14-0.99l0.46-0.17l2.38,6.53l-0.46,0.17c-0.25-0.36-0.5-0.58-0.74-0.67
				C198.92,280.83,198.63,280.85,198.29,280.97z"/>
			<path class="st6" d="M202.79,306.7l-1.51,5.03l-0.49-0.13c-0.02-0.34-0.08-0.58-0.19-0.71c-0.13-0.15-0.58-0.38-1.38-0.67
				c-1.73-0.66-3.13-1.35-4.18-2.08c-1.05-0.73-2.08-1.71-3.09-2.96c-2.01-2.49-3.06-5.01-3.14-7.54c-0.04-1.44,0.24-2.84,0.84-4.2
				c0.65-1.46,1.63-2.72,2.93-3.77c1.79-1.45,3.79-2.21,6-2.28c3.46-0.11,6.55,1.52,9.27,4.89c1.01,1.25,1.76,2.47,2.26,3.66
				c0.5,1.2,0.89,2.71,1.16,4.53c0.12,0.84,0.24,1.33,0.37,1.49c0.1,0.13,0.32,0.24,0.65,0.33l0.01,0.51l-5.21,0.4l-0.03-0.48
				c0.12-0.08,0.19-0.13,0.23-0.14c0.09-0.06,0.15-0.1,0.19-0.13c0.44-0.36,0.45-1.38,0.02-3.06c-0.41-1.6-1.09-2.99-2.04-4.17
				c-1.34-1.65-2.88-2.67-4.62-3.04c-1.97-0.44-3.72-0.03-5.26,1.2c-1.54,1.25-2.31,2.88-2.29,4.9c0.01,1.78,0.69,3.49,2.02,5.14
				c1.04,1.29,2.41,2.32,4.09,3.08c1.32,0.59,2.17,0.73,2.55,0.42c0.02-0.01,0.13-0.13,0.35-0.35L202.79,306.7z"/>
			<path class="st6" d="M242.73,323.47l2.11,5.62l-0.52,0.2c-0.25-0.37-0.48-0.58-0.68-0.63c-0.21-0.05-0.84,0.09-1.92,0.42
				c-2.22,0.67-4.05,1.05-5.48,1.13c-1.43,0.08-3.07-0.1-4.91-0.53c-3.68-0.86-6.49-2.44-8.44-4.73c-1.15-1.34-1.95-2.85-2.4-4.54
				c-0.52-1.94-0.54-3.94-0.05-6.01c0.66-2.82,2.06-5.08,4.2-6.78c3.22-2.55,7.33-3.24,12.36-2.06c1.84,0.43,3.38,1,4.61,1.69
				c1.23,0.7,2.7,1.85,4.42,3.45c0.82,0.76,1.33,1.16,1.54,1.21c0.21,0.05,0.5-0.04,0.89-0.26l0.37,0.41l-4.39,4.11l-0.39-0.41
				c0.07-0.18,0.11-0.33,0.14-0.45c0.08-0.33,0.01-0.67-0.21-1.03c-0.22-0.36-0.64-0.82-1.28-1.4c-1.75-1.61-3.75-2.67-6.01-3.2
				c-2.66-0.62-4.94-0.46-6.84,0.5c-2.23,1.12-3.64,2.94-4.23,5.45c-0.59,2.51-0.13,4.77,1.37,6.77c1.27,1.7,3.24,2.86,5.9,3.49
				c2.25,0.53,4.52,0.46,6.81-0.21c0.82-0.24,1.41-0.47,1.77-0.69c0.35-0.22,0.57-0.5,0.65-0.83c0.03-0.13,0.05-0.28,0.07-0.45
				L242.73,323.47z"/>
			<path class="st6" d="M266.88,325.43l-8.99,0.89l-0.8,2.23c-0.19,0.54-0.28,0.95-0.25,1.24c0.06,0.56,0.46,0.88,1.22,0.95
				l0.05,0.49l-7.18,0.71l-0.05-0.49c0.44-0.11,0.75-0.28,0.95-0.5s0.41-0.63,0.64-1.24l5.7-15.16c0.21-0.57,0.3-1.06,0.26-1.47
				c-0.05-0.48-0.41-0.82-1.09-1.02l-0.05-0.49l7.59-0.76l0.05,0.49c-0.61,0.32-0.9,0.75-0.84,1.28c0.04,0.38,0.23,0.84,0.58,1.37
				l8.8,13.28c0.48,0.72,0.85,1.18,1.11,1.38c0.26,0.2,0.63,0.33,1.11,0.37l0.05,0.49l-7.99,0.79l-0.05-0.49
				c0.74-0.2,1.09-0.59,1.03-1.17c-0.04-0.36-0.23-0.79-0.57-1.3L266.88,325.43z M265.2,322.83l-3.83-5.97l-2.42,6.59L265.2,322.83z
				"/>
			<path class="st6" d="M281.83,313.92l4.08,10.37c0.13,0.34,0.31,0.57,0.54,0.69c0.23,0.12,0.56,0.16,0.98,0.12l0.18,0.46
				l-6.07,2.39l-0.18-0.46c0.34-0.25,0.56-0.49,0.64-0.74c0.09-0.25,0.06-0.54-0.07-0.88l-5.88-14.96
				c-0.13-0.34-0.31-0.56-0.53-0.68c-0.22-0.11-0.55-0.15-0.99-0.12l-0.18-0.46l7.02-2.76l0.18,0.46c-0.43,0.31-0.59,0.61-0.47,0.92
				c0.1,0.26,0.4,0.5,0.88,0.71l13.64,5.87l-3.96-10.07c-0.13-0.34-0.31-0.57-0.53-0.69c-0.22-0.12-0.55-0.16-0.99-0.11l-0.18-0.46
				l6.07-2.39l0.18,0.46c-0.35,0.26-0.57,0.51-0.65,0.75c-0.08,0.24-0.06,0.53,0.08,0.87l5.87,14.94c0.13,0.34,0.31,0.57,0.53,0.68
				c0.22,0.12,0.55,0.16,0.99,0.13l0.18,0.46l-6.55,2.58l-0.18-0.46c0.44-0.29,0.6-0.58,0.48-0.88c-0.06-0.15-0.19-0.28-0.38-0.39
				c-0.19-0.11-0.62-0.31-1.27-0.6L281.83,313.92z"/>
		</g>
	</g>
</g>
</svg>
